<?xml version="1.0" encoding="UTF-8" standalone="no"?><!DOCTYPE svg PUBLIC "-//W3C//DTD SVG 1.1//EN" "http://www.w3.org/Graphics/SVG/1.1/DTD/svg11.dtd"><svg width="100%" height="100%" viewBox="0 0 779 826" version="1.1" xmlns="http://www.w3.org/2000/svg" xmlns:xlink="http://www.w3.org/1999/xlink" xml:space="preserve" xmlns:serif="http://www.serif.com/" style="fill-rule:evenodd;clip-rule:evenodd;stroke-linejoin:round;stroke-miterlimit:2;"><path d="M215.86,653.185l44.871,44.45c38.1,-28.667 84.362,-44.242 133.125,-44.242c48.441,-0 94.433,15.408 132.45,43.787l44.75,-44.691c-101.996,-85.975 -253.45,-85.763 -355.196,0.696" style="fill:#fff;fill-rule:nonzero;"/><path d="M764.096,280.167l-119.717,28.012l-21.641,-67.496l-113.338,126.075l34.383,-248.325l-75.145,35.655l-74.809,-154.088l-70.362,156.638l-85.325,-35.655l33.112,245.775l-113.342,-126.075l-17.825,62.405l-127.345,-26.742l38.204,140.079l-50.946,22.925l79.033,78.292c176.938,-161.005 450.829,-161.392 628.275,-1.225l70.792,-70.696l-53.488,-31.842l39.484,-133.712Z" style="fill:#fff;fill-rule:nonzero;"/><path d="M125.005,563.181l44.729,44.313c127.225,-111.163 319.633,-111.429 447.204,-0.825l44.542,-44.484c-151.913,-135.541 -384.896,-135.187 -536.475,0.996" style="fill:#fff;fill-rule:nonzero;"/><path d="M393.828,714.659c-30.471,-0 -55.171,24.7 -55.171,55.171c0,30.47 24.7,55.17 55.171,55.17c30.471,0 55.171,-24.7 55.171,-55.17c0,-30.471 -24.7,-55.171 -55.171,-55.171" style="fill:#fff;fill-rule:nonzero;"/></svg>